# xmcd
#
# Track frame offsets: 
#        150
#        12190
#        29480
#        46042
#        65997
#        83042
#        100790
#        116945
#        132675
#        152095
#        172572
#        188132
#        203597
#        216010
#
# Disc length: 3036 seconds
#
# Revision: 0
# Processed by: cddbd v1.5.2PL0 Copyright (c) Steve Scherf et al.
# Submitted via: ExactAudioCopy v0.99pb3
#
DISCID=ba0bda0e
DTITLE=Refreshments, The - Musical Fun For Everyone
DYEAR=2000
DGENRE=Avantgarde
TTITLE0=Musical Fun For Everyone
TTITLE1=A Guy Like That
TTITLE2=21st Ventury World
TTITLE3=55 Ford
TTITLE4=Natalie
TTITLE5=Russian Roulette
TTITLE6=Looking For Mr. Right
TTITLE7=A.S.A.P
TTITLE8=Don't Take It Out On Our Love
TTITLE9=Silverstring
TTITLE10=For You
TTITLE11=Wings Of Love
TTITLE12=Fair Share
TTITLE13=I'm Just Flirtin'
EXTD=
EXTT0=
EXTT1=
EXTT2=
EXTT3=
EXTT4=
EXTT5=
EXTT6=
EXTT7=
EXTT8=
EXTT9=
EXTT10=
EXTT11=
EXTT12=
EXTT13=
PLAYORDER=
